<svg width="412" height="12" viewBox="0 0 412 12" fill="none" xmlns="http://www.w3.org/2000/svg">
<path d="M2.5 0H26.5L14.5 12H-9.5L2.5 0Z" fill="#0048B7"/>
<path d="M38.5 0H62.5L50.5 12H26.5L38.5 0Z" fill="#0048B7"/>
<path d="M74.5 0H98.5L86.5 12H62.5L74.5 0Z" fill="#0048B7"/>
<path d="M110.5 0H134.5L122.5 12H98.5L110.5 0Z" fill="#0048B7"/>
<path d="M146.5 0H170.5L158.5 12H134.5L146.5 0Z" fill="#0048B7"/>
<path d="M182.5 0H206.5L194.5 12H170.5L182.5 0Z" fill="#0048B7"/>
<path d="M218.5 0H242.5L230.5 12H206.5L218.5 0Z" fill="#0048B7"/>
<path d="M254.5 0H278.5L266.5 12H242.5L254.5 0Z" fill="#0048B7"/>
<path d="M290.5 0H314.5L302.5 12H278.5L290.5 0Z" fill="#0048B7"/>
<path d="M326.5 0H350.5L338.5 12H314.5L326.5 0Z" fill="#0048B7"/>
<path d="M362.5 0H386.5L374.5 12H350.5L362.5 0Z" fill="#0048B7"/>
<path d="M398.5 0H422.5L410.5 12H386.5L398.5 0Z" fill="#0048B7"/>
</svg>
