<svg width="69" height="69" viewBox="0 0 69 69" fill="none" xmlns="http://www.w3.org/2000/svg">
<g clip-path="url(#clip0_2924_3097)">
<rect x="0.5" y="0.833984" width="68" height="68" rx="34" fill="black" fill-opacity="0.35"/>
<path d="M34.5 63.1667C18.8515 63.1667 6.16666 50.4818 6.16666 34.8333C6.16666 19.1848 18.8515 6.5 34.5 6.5C50.1485 6.5 62.8333 19.1848 62.8333 34.8333C62.8333 50.4818 50.1485 63.1667 34.5 63.1667ZM34.5 57.5C40.5116 57.5 46.2769 55.1119 50.5277 50.8611C54.7786 46.6103 57.1667 40.8449 57.1667 34.8333C57.1667 28.8218 54.7786 23.0564 50.5277 18.8056C46.2769 14.5548 40.5116 12.1667 34.5 12.1667C28.4884 12.1667 22.7231 14.5548 18.4722 18.8056C14.2214 23.0564 11.8333 28.8218 11.8333 34.8333C11.8333 40.8449 14.2214 46.6103 18.4722 50.8611C22.7231 55.1119 28.4884 57.5 34.5 57.5ZM30.5957 24.6758L44.4195 33.8898C44.5749 33.9933 44.7024 34.1336 44.7906 34.2982C44.8788 34.4628 44.9249 34.6466 44.9249 34.8333C44.9249 35.0201 44.8788 35.2039 44.7906 35.3685C44.7024 35.5331 44.5749 35.6734 44.4195 35.7768L30.5928 44.9908C30.4223 45.1038 30.2244 45.1686 30.0201 45.1783C29.8158 45.1879 29.6127 45.1421 29.4323 45.0457C29.2519 44.9492 29.101 44.8058 28.9956 44.6305C28.8901 44.4552 28.834 44.2547 28.8333 44.0502V25.6165C28.8337 25.4115 28.8897 25.2105 28.9953 25.0348C29.1009 24.8591 29.2521 24.7153 29.433 24.6188C29.6138 24.5222 29.8175 24.4766 30.0222 24.4866C30.2269 24.4967 30.4251 24.5621 30.5957 24.6758Z" fill="white"/>
</g>
<defs>
<clipPath id="clip0_2924_3097">
<rect x="0.5" y="0.833984" width="68" height="68" rx="34" fill="white"/>
</clipPath>
</defs>
</svg>
